# xmcd
#
# Track frame offsets: 
#        150
#        20105
#        35547
#        54005
#        69400
#        90597
#        104197
#        123207
#        139190
#        160617
#        177322
#        198280
#        210735
#        223407
#        235330
#        253787
#
# Disc length: 3575 seconds
#
# Revision: 0
# Processed by: cddbd v1.5.2PL0 Copyright (c) Steve Scherf et al.
# Submitted via: ExactAudioCopy v0.95b4
#
DISCID=ea0df510
DTITLE=The Highliners - Country Classics (Disk 3)
DYEAR=1997
DGENRE=Country
TTITLE0=Boot Scootin' Boogie
TTITLE1=I Feel Lucky
TTITLE2=Texas Tattoo
TTITLE3=American Honky Tonk Bar Association
TTITLE4=Fast As You
TTITLE5=Watermelon Crawl
TTITLE6=Archy Breaky Heart
TTITLE7=Chatahoochee
TTITLE8=God Bless Texas
TTITLE9=Baby Likes To Rock It
TTITLE10=Ain't Going Down 'till The Sun Comes Up
TTITLE11=Be My Baby Tonight
TTITLE12=Born To Boogie
TTITLE13=If Bubba Can Dance
TTITLE14=Don't Rock The Jukebox
TTITLE15=Great Balls Of Fire
EXTD=
EXTT0=
EXTT1=
EXTT2=
EXTT3=
EXTT4=
EXTT5=
EXTT6=
EXTT7=
EXTT8=
EXTT9=
EXTT10=
EXTT11=
EXTT12=
EXTT13=
EXTT14=
EXTT15=
PLAYORDER=
